# xmcd
#
# Track frame offsets: 
#        150
#        12812
#        27279
#        41453
#        54291
#        73417
#        78920
#        91915
#        107524
#        120306
#        136334
#        149678
#        163141
#        178386
#        193299
#        208961
#        227454
#        242112
#        258083
#        273356
#        283371
#        299420
#        322019
#
# Disc length: 4564 seconds
#
# Revision: 1
# Processed by: cddbd v1.5.2PL0 Copyright (c) Steve Scherf et al.
# Submitted via: ExactAudioCopyFreeDBPlugin 1.0
#
DISCID=5d11d217
DTITLE=Various Artist - D.L Presents Freedom Jazz Funk Mellow Storm
DYEAR=2015
DGENRE=Funk
TTITLE0=Lonnie Smith - It's Changed
TTITLE1=Lonnie Smith - Babbitt's Other Song
TTITLE2=Oliver Sain - Comin' Down Soul
TTITLE3=O'donel Levy - We've Only Just Begun
TTITLE4=Joe Thomas - Coco
TTITLE5=Joe Pass - Better Days
TTITLE6=B. Baker Chocolate Co. - Snow Blower
TTITLE7=Joe Pass - Slick Cat
TTITLE8=Nico Gomez - Baila Chibiquiban
TTITLE9=Bubbha Thomas and The Lightmen - Country Fried Chicken
TTITLE10=Odell Brown - Simmizzoke
TTITLE11=Lonnie Smith - For The Love Of It
TTITLE12=Lonnie Smith - When The Night Is Right
TTITLE13=O'donel Levy - I Wanna Be Where You Are
TTITLE14=Richard Groove Holmes - You've Got It Bad
TTITLE15=Judy Roberts - Never Was Love
TTITLE16=Janko Nilovic - The Third Power
TTITLE17=Nico Gomez - Ritual
TTITLE18=O'donel Levy - Hey, Love
TTITLE19=The Lightmen Plus One - The Phantom
TTITLE20=Jimmy Ponder - A Clue
TTITLE21=Dexter Wansel - Theme Of The Planet
TTITLE22=The Wooden Glass featuring Billy Wooten - In The Rain
EXTD=
EXTT0=
EXTT1=
EXTT2=
EXTT3=
EXTT4=
EXTT5=
EXTT6=
EXTT7=
EXTT8=
EXTT9=
EXTT10=
EXTT11=
EXTT12=
EXTT13=
EXTT14=
EXTT15=
EXTT16=
EXTT17=
EXTT18=
EXTT19=
EXTT20=
EXTT21=
EXTT22=
PLAYORDER=
